<svg width="81" height="81" viewBox="0 0 81 81" fill="none" xmlns="http://www.w3.org/2000/svg">
<circle cx="40.5" cy="40.5" r="40.5" fill="white"/>
<g clip-path="url(#clip0_77_220)">
<path d="M40.499 19C49.9986 19 57.6995 26.6231 57.6995 36.0268C57.6995 45.4305 49.9986 53.0535 40.499 53.0535C30.9994 53.0535 23.2986 45.4305 23.2986 36.0268C23.2986 26.6231 30.9994 19 40.499 19Z" fill="#FF9543"/>
<path d="M40.5404 51.5765C49.2388 51.5765 56.2902 44.5963 56.2902 35.9857C56.2902 27.3752 49.2388 20.395 40.5404 20.395C31.8421 20.395 24.7906 27.3752 24.7906 35.9857C24.7906 44.5963 31.8421 51.5765 40.5404 51.5765Z" fill="#3D3D3D"/>
<path d="M27.297 34.6635C26.9616 34.5487 26.7386 34.2835 26.6947 33.807C26.8832 32.6514 27.0014 32.4028 28.0926 29.9413C29.1122 28.0269 29.4732 27.6761 29.966 27.5793C30.2698 27.5192 30.7566 27.6913 31.3414 27.8777C32.7854 28.3381 37.5043 33.3173 39.0151 36.1578C40.5259 38.9983 28.1612 34.96 27.297 34.6635Z" fill="url(#paint0_linear_77_220)"/>
<path d="M53.2308 35.1445C53.5662 35.0296 54.6379 34.4989 54.6814 34.0224C54.4929 32.8668 54.4633 32.9784 53.3725 30.5169C52.353 28.6024 52.1579 28.7675 51.6522 28.215C51.3484 28.1549 50.7023 27.2517 50.1175 27.4382C48.6735 27.8986 44.3564 32.9752 42.8456 35.8156C41.3349 38.6561 52.3665 35.4409 53.2308 35.1445Z" fill="url(#paint1_linear_77_220)"/>
<path d="M31.5798 26.19C31.3666 25.9091 31.5797 25.3597 31.5797 25.3597C31.5797 25.3597 31.3026 25.2256 33.5974 23.7887C35.5242 22.7659 38.5851 21.8362 38.5851 21.8362C38.5851 21.8362 39.0445 21.6272 39.424 22.1055C40.361 23.2865 41.2043 31.9532 40.8523 35.1444C40.6614 36.874 36.2274 31.2619 36.2274 31.2619C36.2274 31.2619 31.8312 26.5217 31.5798 26.19Z" fill="url(#paint2_linear_77_220)"/>
<path d="M40.7207 21.9843C40.8011 21.6421 41.4267 21.554 42.5024 21.6339C43.5781 21.7139 45.0236 22.305 45.0236 22.305C45.0236 22.305 46.3902 22.8641 46.4678 22.8885C48.4977 23.6921 49.4207 24.3764 49.3708 25.4118C49.321 26.4473 46.0386 29.5034 45.6849 30.1452C45.2056 31.0817 44.3239 31.626 43.9417 32.315C43.4582 33.1862 43.1018 33.944 42.1486 35.2734C41.4078 35.7637 41.4641 34.9397 41.487 33.0053C41.7669 31.6819 41.487 28.2281 41.487 28.2281C41.487 28.2281 40.6256 22.3882 40.7207 21.9843Z" fill="url(#paint3_linear_77_220)"/>
<path d="M40.499 64.0564C31.7586 64.0564 24.6478 56.7757 24.6478 47.8265C24.6478 44.903 16.7428 42.8477 13.3673 41.9701C10.5849 41.2467 9.83711 41.0522 9.96987 40.0345C10.119 38.8912 10.1279 38.8228 22.6034 38.8228C25.5326 38.8228 29.1075 38.8311 33.433 38.8413L40.5009 38.857L48.5494 38.8709C70.8756 38.9056 70.8756 38.9056 71.031 40.1363C71.1589 41.1503 70.4196 41.3373 67.6688 42.033C64.2819 42.8896 56.3503 44.8957 56.3503 47.8265C56.3503 56.7757 49.2394 64.0564 40.499 64.0564Z" fill="#FFAA68"/>
<path d="M22.6034 39.7664C-5.34331 39.7664 25.601 40.5312 25.601 47.8265C25.601 56.2688 32.2711 63.1127 40.499 63.1127C48.7269 63.1127 55.397 56.2688 55.397 47.8265C55.397 39.3842 96.8407 39.9139 40.499 39.8007C32.8442 39.7853 26.9973 39.7664 22.6034 39.7664ZM22.6034 37.8791C25.535 37.8791 29.1132 37.8875 33.4433 37.8977L40.5029 37.9134L48.5509 37.9272C56.7045 37.9399 62.0911 37.9483 65.4451 38.0044C70.1507 38.0831 71.7358 38.1096 71.9769 40.0193C72.209 41.8586 70.6802 42.2453 67.9048 42.9473C60.8703 44.7265 57.3035 46.3681 57.3035 47.8265C57.3035 57.296 49.7651 65 40.499 65C31.233 65 23.6945 57.296 23.6945 47.8265C23.6945 46.3695 20.1384 44.7062 13.1251 42.8828C10.3261 42.155 8.78433 41.7542 9.02442 39.9137C9.26253 38.0885 11.0301 38.0329 13.4766 37.956C15.2158 37.9014 17.86 37.8791 22.6034 37.8791Z" fill="#946D4F"/>
<path d="M30.0084 47.225C26.9579 52.7767 32.2714 60.9581 40.0443 57.6462C41.7851 56.9044 42.396 55.6932 42.259 54.3038C41.7929 49.5765 32.375 42.9168 30.0084 47.225Z" fill="#FFD2AE"/>
<path d="M44.1741 55.2217C43.0136 57.6407 44.9147 59.4598 47.8712 58.0168C48.5334 57.6936 48.7657 57.166 48.7136 56.5605C48.5364 54.5005 45.0744 53.3446 44.1741 55.2217Z" fill="#FFD2AE"/>
<path d="M16.5773 40.6339C13.0672 41.0317 23.8494 42.0638 25.3934 44.3811C26.9375 46.6985 26.5223 46.8629 27.12 48.0956C27.7177 49.3282 27.2858 43.6909 26.2402 42.4091C25.1945 41.1273 28.7637 41.2849 30.6066 40.8444C32.4495 40.4039 20.0873 40.2363 16.5773 40.6339Z" fill="#5D5D5D" fill-opacity="0.66"/>
<path d="M63.9983 40.6459C67.5148 40.9831 56.7525 42.2013 55.2496 44.5449C53.7466 46.8886 54.1645 47.0459 53.5887 48.2887C53.0129 49.5315 53.3453 43.8875 54.3682 42.5878C55.391 41.2881 51.8252 41.5074 49.9748 41.0988C48.1244 40.6902 60.4818 40.3088 63.9983 40.6459Z" fill="#5D5D5D" fill-opacity="0.66"/>
</g>
<defs>
<linearGradient id="paint0_linear_77_220" x1="28.3752" y1="30.5809" x2="35.8314" y2="37.5258" gradientUnits="userSpaceOnUse">
<stop stop-color="#FF9543"/>
<stop offset="1" stop-color="#D64141"/>
</linearGradient>
<linearGradient id="paint1_linear_77_220" x1="53.0644" y1="30.4168" x2="45.6558" y2="37.0784" gradientUnits="userSpaceOnUse">
<stop stop-color="#FF9543"/>
<stop offset="1" stop-color="#D64141"/>
</linearGradient>
<linearGradient id="paint2_linear_77_220" x1="35.159" y1="23.2208" x2="37.8454" y2="33.9017" gradientUnits="userSpaceOnUse">
<stop stop-color="#FF9543"/>
<stop offset="1" stop-color="#D64141"/>
</linearGradient>
<linearGradient id="paint3_linear_77_220" x1="46.3405" y1="22.9804" x2="39.4601" y2="30.5769" gradientUnits="userSpaceOnUse">
<stop stop-color="#FF9543"/>
<stop offset="1" stop-color="#D64141"/>
</linearGradient>
<clipPath id="clip0_77_220">
<rect width="63" height="46" fill="white" transform="translate(9 19)"/>
</clipPath>
</defs>
</svg>
