<svg width="403" height="262" viewBox="0 0 403 262" fill="none" xmlns="http://www.w3.org/2000/svg">
<g opacity="0.52" clip-path="url(#clip0_98_19)">
<path d="M158.495 29C206.295 29 245.043 67.6125 245.043 115.244C245.043 162.876 206.295 201.489 158.495 201.489C110.695 201.489 71.9468 162.876 71.9468 115.244C71.9468 67.6125 110.695 29 158.495 29Z" fill="#FF9543"/>
<path d="M158.704 194.007C202.472 194.007 237.952 158.651 237.952 115.036C237.952 71.4222 202.472 36.0658 158.704 36.0658C114.936 36.0658 79.4546 71.4222 79.4546 115.036C79.4546 158.651 114.936 194.007 158.704 194.007Z" fill="#3D3D3D"/>
<path d="M92.0656 108.339C90.378 107.757 89.2556 106.414 89.0349 104.001C89.9834 98.1476 90.5782 96.8882 96.0689 84.4204C101.199 74.7232 103.016 72.9464 105.495 72.4564C107.024 72.1517 109.473 73.0233 112.416 73.9676C119.682 76.2997 143.426 101.52 151.028 115.908C158.63 130.296 96.4138 109.841 92.0656 108.339Z" fill="url(#paint0_linear_98_19)"/>
<path d="M222.558 110.775C224.245 110.193 229.638 107.505 229.857 105.092C228.908 99.2386 228.76 99.8034 223.271 87.3356C218.141 77.6384 217.159 78.4743 214.615 75.6762C213.086 75.3715 209.835 70.7967 206.892 71.7414C199.626 74.0735 177.904 99.7872 170.302 114.175C162.701 128.562 218.209 112.277 222.558 110.775Z" fill="url(#paint1_linear_98_19)"/>
<path d="M113.615 65.4189C112.543 63.9961 113.615 61.213 113.615 61.213C113.615 61.213 112.221 60.534 123.768 53.2558C133.463 48.0752 148.864 43.3659 148.864 43.3659C148.864 43.3659 151.176 42.3074 153.085 44.73C157.8 50.7122 162.044 94.611 160.272 110.775C159.312 119.536 137.001 91.1091 137.001 91.1091C137.001 91.1091 114.88 67.099 113.615 65.4189Z" fill="url(#paint2_linear_98_19)"/>
<path d="M159.61 44.1163C160.015 42.3831 163.163 41.9368 168.575 42.3415C173.988 42.7463 181.262 45.7404 181.262 45.7404C181.262 45.7404 188.138 48.5726 188.528 48.6959C198.743 52.7666 203.386 56.2326 203.136 61.4775C202.885 66.7223 186.369 82.2018 184.589 85.4529C182.177 90.1965 177.741 92.9535 175.818 96.4436C173.385 100.856 171.592 104.695 166.795 111.428C163.068 113.912 163.351 109.738 163.466 99.9401C164.875 93.2366 163.466 75.7422 163.466 75.7422C163.466 75.7422 159.132 46.162 159.61 44.1163Z" fill="url(#paint3_linear_98_19)"/>
<path d="M158.495 257.22C114.515 257.22 78.7355 220.342 78.7355 175.012C78.7355 160.204 38.96 149.794 21.975 145.348C7.97483 141.684 4.21206 140.699 4.88011 135.544C5.63058 129.753 5.67548 129.406 68.4488 129.406C83.188 129.406 101.176 129.449 122.941 129.5L158.505 129.58L199.003 129.65C311.342 129.826 311.342 129.826 312.124 136.06C312.768 141.196 309.048 142.143 295.207 145.667C278.164 150.006 238.254 160.167 238.254 175.012C238.254 220.342 202.475 257.22 158.495 257.22Z" fill="#FFAA68"/>
<path d="M68.4487 134.186C-72.1719 134.186 83.5322 138.06 83.5322 175.012C83.5322 217.775 117.094 252.44 158.495 252.44C199.896 252.44 233.458 217.775 233.458 175.012C233.458 132.25 441.992 134.934 158.495 134.36C119.978 134.282 90.5579 134.186 68.4487 134.186ZM68.4488 124.627C83.2001 124.627 101.205 124.669 122.992 124.721L158.515 124.8L199.01 124.871C240.037 124.935 267.141 124.977 284.017 125.261C307.695 125.66 315.671 125.794 316.884 135.468C318.052 144.784 310.359 146.743 296.394 150.298C260.998 159.31 243.051 167.625 243.051 175.012C243.051 222.978 205.119 262 158.495 262C111.871 262 73.9389 222.978 73.9389 175.012C73.9389 167.633 56.0457 159.208 20.7564 149.971C6.6728 146.285 -1.08517 144.255 0.1229 134.932C1.32099 125.687 10.2151 125.406 22.5252 125.016C31.2762 124.74 44.5812 124.627 68.4488 124.627Z" fill="#946D4F"/>
<path d="M105.709 171.966C90.3592 200.086 117.095 241.527 156.207 224.751C164.966 220.994 168.04 214.859 167.35 207.822C165.005 183.876 117.617 150.144 105.709 171.966Z" fill="#FFD2AE"/>
<path d="M176.987 212.471C171.148 224.724 180.713 233.938 195.59 226.629C198.922 224.992 200.091 222.319 199.828 219.252C198.937 208.818 181.517 202.963 176.987 212.471Z" fill="#FFD2AE"/>
<path d="M38.1271 138.581C20.4654 140.596 74.7184 145.823 82.4877 157.561C90.2571 169.299 88.1678 170.132 91.1755 176.375C94.1832 182.619 92.0097 154.065 86.7484 147.572C81.4871 141.079 99.4462 141.878 108.719 139.647C117.992 137.416 55.7887 136.566 38.1271 138.581Z" fill="#5D5D5D" fill-opacity="0.66"/>
<path d="M276.738 138.641C294.432 140.349 240.279 146.519 232.716 158.391C225.154 170.262 227.257 171.058 224.359 177.353C221.462 183.648 223.135 155.061 228.281 148.477C233.428 141.894 215.486 143.005 206.175 140.935C196.865 138.866 259.043 136.934 276.738 138.641Z" fill="#5D5D5D" fill-opacity="0.66"/>
</g>
<g filter="url(#filter0_d_98_19)">
<path d="M139.769 23.36L148.889 45.68L157.961 23.36H164.249V56H158.729V43.52L159.449 32.096L151.337 52.16H146.201L138.281 32.048L139.001 43.52V56H133.481V23.36H139.769ZM178.222 27.056H172.414V21.344H178.222V27.056ZM178.078 56H172.558V31.664H178.078V56ZM192.499 51.68C193.683 51.68 194.659 51.488 195.427 51.104C196.195 50.688 196.579 50.08 196.579 49.28C196.579 48.576 196.323 48.032 195.811 47.648C195.331 47.232 194.451 46.864 193.171 46.544L190.435 45.824C188.323 45.28 186.755 44.368 185.731 43.088C184.739 41.808 184.243 40.288 184.243 38.528C184.243 36.448 184.963 34.704 186.403 33.296C187.843 31.888 190.067 31.184 193.075 31.184C194.291 31.184 195.571 31.328 196.915 31.616C198.259 31.904 199.667 32.368 201.139 33.008L199.555 37.712C198.211 37.072 196.995 36.624 195.907 36.368C194.819 36.112 193.859 35.984 193.027 35.984C190.755 35.984 189.619 36.752 189.619 38.288C189.619 38.896 189.811 39.376 190.195 39.728C190.611 40.08 191.363 40.4 192.451 40.688L195.187 41.408C197.523 42.016 199.219 42.944 200.275 44.192C201.363 45.44 201.907 47.008 201.907 48.896C201.907 51.136 201.139 52.96 199.603 54.368C198.099 55.776 195.715 56.48 192.451 56.48C189.667 56.48 186.739 55.84 183.667 54.56L185.155 50C186.659 50.608 188.019 51.04 189.235 51.296C190.451 51.552 191.539 51.68 192.499 51.68ZM214.389 51.68C215.573 51.68 216.549 51.488 217.317 51.104C218.085 50.688 218.469 50.08 218.469 49.28C218.469 48.576 218.213 48.032 217.701 47.648C217.221 47.232 216.341 46.864 215.061 46.544L212.325 45.824C210.213 45.28 208.645 44.368 207.621 43.088C206.629 41.808 206.133 40.288 206.133 38.528C206.133 36.448 206.853 34.704 208.293 33.296C209.733 31.888 211.957 31.184 214.965 31.184C216.181 31.184 217.461 31.328 218.805 31.616C220.149 31.904 221.557 32.368 223.029 33.008L221.445 37.712C220.101 37.072 218.885 36.624 217.797 36.368C216.709 36.112 215.749 35.984 214.917 35.984C212.645 35.984 211.509 36.752 211.509 38.288C211.509 38.896 211.701 39.376 212.085 39.728C212.501 40.08 213.253 40.4 214.341 40.688L217.077 41.408C219.413 42.016 221.109 42.944 222.165 44.192C223.253 45.44 223.797 47.008 223.797 48.896C223.797 51.136 223.029 52.96 221.493 54.368C219.989 55.776 217.605 56.48 214.341 56.48C211.557 56.48 208.629 55.84 205.557 54.56L207.045 50C208.549 50.608 209.909 51.04 211.125 51.296C212.341 51.552 213.429 51.68 214.389 51.68ZM235.128 27.056H229.32V21.344H235.128V27.056ZM234.984 56H229.464V31.664H234.984V56ZM262.509 42.368V45.248C262.509 48.64 261.581 51.36 259.725 53.408C257.869 55.456 255.245 56.48 251.853 56.48C248.461 56.48 245.837 55.456 243.981 53.408C242.125 51.36 241.197 48.64 241.197 45.248V42.368C241.197 38.976 242.109 36.272 243.933 34.256C245.789 32.208 248.429 31.184 251.853 31.184C255.277 31.184 257.901 32.208 259.725 34.256C261.581 36.272 262.509 38.976 262.509 42.368ZM256.845 42.368C256.845 40.416 256.413 38.896 255.549 37.808C254.685 36.688 253.453 36.128 251.853 36.128C250.253 36.128 249.021 36.688 248.157 37.808C247.293 38.896 246.861 40.416 246.861 42.368V45.248C246.861 47.2 247.293 48.736 248.157 49.856C249.021 50.976 250.253 51.536 251.853 51.536C253.453 51.536 254.685 50.976 255.549 49.856C256.413 48.736 256.845 47.2 256.845 45.248V42.368ZM280.602 36.32C279.802 36.32 278.89 36.512 277.866 36.896C276.842 37.28 275.626 38.032 274.218 39.152V56H268.698V31.664H273.93V34.928C275.434 33.616 276.858 32.672 278.202 32.096C279.546 31.488 280.906 31.184 282.282 31.184C284.618 31.184 286.394 31.936 287.61 33.44C288.826 34.912 289.434 36.992 289.434 39.68V56H283.914V40.352C283.914 37.664 282.81 36.32 280.602 36.32ZM324.771 56.24C323.139 56.24 321.827 55.904 320.835 55.232C319.875 54.56 319.171 53.728 318.723 52.736C317.347 54.016 316.019 54.96 314.739 55.568C313.459 56.176 312.083 56.48 310.611 56.48C308.467 56.48 306.883 55.792 305.859 54.416C304.867 53.04 304.371 51.296 304.371 49.184C304.371 47.776 304.627 46.544 305.139 45.488C305.683 44.4 306.563 43.552 307.779 42.944C308.995 42.336 310.659 42.032 312.771 42.032C313.603 42.032 314.467 42.096 315.363 42.224C316.259 42.32 317.155 42.448 318.051 42.608V39.776C318.051 38.432 317.683 37.52 316.947 37.04C316.211 36.528 315.219 36.272 313.971 36.272C313.011 36.272 311.955 36.4 310.803 36.656C309.683 36.912 308.467 37.312 307.155 37.856L305.571 33.152C308.803 31.84 311.731 31.184 314.355 31.184C316.723 31.184 318.547 31.584 319.827 32.384C321.139 33.184 322.051 34.24 322.563 35.552C323.075 36.864 323.331 38.272 323.331 39.776V49.136C323.331 49.616 323.459 50.08 323.715 50.528C324.003 50.944 324.547 51.152 325.347 51.152H325.875V56.24H324.771ZM309.699 49.088C309.699 49.952 309.891 50.64 310.275 51.152C310.659 51.632 311.219 51.872 311.955 51.872C312.691 51.872 313.523 51.68 314.451 51.296C315.379 50.912 316.579 50.016 318.051 48.608V46.544C316.387 46.256 314.755 46.112 313.155 46.112C311.907 46.112 311.011 46.368 310.467 46.88C309.955 47.392 309.699 48.128 309.699 49.088ZM342.571 36.32C341.771 36.32 340.859 36.512 339.835 36.896C338.811 37.28 337.595 38.032 336.187 39.152V56H330.667V31.664H335.899V34.928C337.403 33.616 338.827 32.672 340.171 32.096C341.515 31.488 342.875 31.184 344.251 31.184C346.587 31.184 348.363 31.936 349.579 33.44C350.795 34.912 351.403 36.992 351.403 39.68V56H345.883V40.352C345.883 37.664 344.779 36.32 342.571 36.32ZM372.954 56V52.688C371.482 54.16 370.202 55.168 369.114 55.712C368.058 56.224 366.954 56.48 365.802 56.48C363.178 56.48 361.13 55.488 359.658 53.504C358.218 51.52 357.498 48.736 357.498 45.152V42.56C357.498 39.072 358.378 36.304 360.138 34.256C361.898 32.208 364.442 31.184 367.77 31.184C368.602 31.184 369.418 31.264 370.218 31.424C371.05 31.584 371.866 31.808 372.666 32.096V20.48H378.186V56H372.954ZM363.162 45.152C363.162 47.296 363.514 48.864 364.218 49.856C364.954 50.848 365.978 51.344 367.29 51.344C368.026 51.344 368.81 51.136 369.642 50.72C370.474 50.272 371.482 49.44 372.666 48.224V37.088C371.098 36.448 369.658 36.128 368.346 36.128C366.49 36.128 365.162 36.704 364.362 37.856C363.562 39.008 363.162 40.576 363.162 42.56V45.152ZM279.048 81.36L268.68 114H262.776L252.36 81.36H258.696L263.64 97.776L265.896 106.224L268.296 97.728L273.192 81.36H279.048ZM289.175 85.056H283.367V79.344H289.175V85.056ZM289.031 114H283.511V89.664H289.031V114ZM303.452 109.68C304.636 109.68 305.612 109.488 306.38 109.104C307.148 108.688 307.532 108.08 307.532 107.28C307.532 106.576 307.276 106.032 306.764 105.648C306.284 105.232 305.404 104.864 304.124 104.544L301.388 103.824C299.276 103.28 297.708 102.368 296.684 101.088C295.692 99.808 295.196 98.288 295.196 96.528C295.196 94.448 295.916 92.704 297.356 91.296C298.796 89.888 301.02 89.184 304.028 89.184C305.244 89.184 306.524 89.328 307.868 89.616C309.212 89.904 310.62 90.368 312.092 91.008L310.508 95.712C309.164 95.072 307.948 94.624 306.86 94.368C305.772 94.112 304.812 93.984 303.98 93.984C301.708 93.984 300.572 94.752 300.572 96.288C300.572 96.896 300.764 97.376 301.148 97.728C301.564 98.08 302.316 98.4 303.404 98.688L306.14 99.408C308.476 100.016 310.172 100.944 311.228 102.192C312.316 103.44 312.86 105.008 312.86 106.896C312.86 109.136 312.092 110.96 310.556 112.368C309.052 113.776 306.668 114.48 303.404 114.48C300.62 114.48 297.692 113.84 294.62 112.56L296.108 108C297.612 108.608 298.972 109.04 300.188 109.296C301.404 109.552 302.492 109.68 303.452 109.68ZM324.19 85.056H318.382V79.344H324.19V85.056ZM324.046 114H318.526V89.664H324.046V114ZM351.571 100.368V103.248C351.571 106.64 350.643 109.36 348.787 111.408C346.931 113.456 344.307 114.48 340.915 114.48C337.523 114.48 334.899 113.456 333.043 111.408C331.187 109.36 330.259 106.64 330.259 103.248V100.368C330.259 96.976 331.171 94.272 332.995 92.256C334.851 90.208 337.491 89.184 340.915 89.184C344.339 89.184 346.963 90.208 348.787 92.256C350.643 94.272 351.571 96.976 351.571 100.368ZM345.907 100.368C345.907 98.416 345.475 96.896 344.611 95.808C343.747 94.688 342.515 94.128 340.915 94.128C339.315 94.128 338.083 94.688 337.219 95.808C336.355 96.896 335.923 98.416 335.923 100.368V103.248C335.923 105.2 336.355 106.736 337.219 107.856C338.083 108.976 339.315 109.536 340.915 109.536C342.515 109.536 343.747 108.976 344.611 107.856C345.475 106.736 345.907 105.2 345.907 103.248V100.368ZM369.665 94.32C368.865 94.32 367.953 94.512 366.929 94.896C365.905 95.28 364.689 96.032 363.281 97.152V114H357.761V89.664H362.993V92.928C364.497 91.616 365.921 90.672 367.265 90.096C368.609 89.488 369.969 89.184 371.345 89.184C373.681 89.184 375.457 89.936 376.673 91.44C377.889 92.912 378.497 94.992 378.497 97.68V114H372.977V98.352C372.977 95.664 371.873 94.32 369.665 94.32Z" fill="black"/>
</g>
<defs>
<filter id="filter0_d_98_19" x="109.481" y="0.47998" width="293.016" height="142" filterUnits="userSpaceOnUse" color-interpolation-filters="sRGB">
<feFlood flood-opacity="0" result="BackgroundImageFix"/>
<feColorMatrix in="SourceAlpha" type="matrix" values="0 0 0 0 0 0 0 0 0 0 0 0 0 0 0 0 0 0 127 0" result="hardAlpha"/>
<feOffset dy="4"/>
<feGaussianBlur stdDeviation="12"/>
<feComposite in2="hardAlpha" operator="out"/>
<feColorMatrix type="matrix" values="0 0 0 0 0 0 0 0 0 0 0 0 0 0 0 0 0 0 0.25 0"/>
<feBlend mode="normal" in2="BackgroundImageFix" result="effect1_dropShadow_98_19"/>
<feBlend mode="normal" in="SourceGraphic" in2="effect1_dropShadow_98_19" result="shape"/>
</filter>
<linearGradient id="paint0_linear_98_19" x1="97.4908" y1="87.6599" x2="135.24" y2="122.588" gradientUnits="userSpaceOnUse">
<stop stop-color="#FF9543"/>
<stop offset="1" stop-color="#D64141"/>
</linearGradient>
<linearGradient id="paint1_linear_98_19" x1="221.721" y1="86.8284" x2="184.222" y2="120.324" gradientUnits="userSpaceOnUse">
<stop stop-color="#FF9543"/>
<stop offset="1" stop-color="#D64141"/>
</linearGradient>
<linearGradient id="paint2_linear_98_19" x1="131.625" y1="50.3793" x2="145.312" y2="104.437" gradientUnits="userSpaceOnUse">
<stop stop-color="#FF9543"/>
<stop offset="1" stop-color="#D64141"/>
</linearGradient>
<linearGradient id="paint3_linear_98_19" x1="187.888" y1="49.1618" x2="153.015" y2="87.4092" gradientUnits="userSpaceOnUse">
<stop stop-color="#FF9543"/>
<stop offset="1" stop-color="#D64141"/>
</linearGradient>
<clipPath id="clip0_98_19">
<rect width="317" height="233" fill="white" transform="translate(0 29)"/>
</clipPath>
</defs>
</svg>
