<svg xmlns="http://www.w3.org/2000/svg" xmlns:xlink="http://www.w3.org/1999/xlink" width="760.01" height="560.588" viewBox="0 0 760.01 560.588">
  <defs>
    <linearGradient id="linear-gradient" x1="0.135" y1="0.314" x2="0.873" y2="0.844" gradientUnits="objectBoundingBox">
      <stop offset="0" stop-color="#ff9543"/>
      <stop offset="1" stop-color="#d64141"/>
    </linearGradient>
    <linearGradient id="linear-gradient-2" x1="0.865" y1="0.314" x2="0.127" y2="0.844" xlink:href="#linear-gradient"/>
  </defs>
  <g id="ptas-logo" transform="translate(-564.507 -295)">
    <g id="Group_2" data-name="Group 2">
      <g id="Group_1" data-name="Group 1" transform="translate(129 -69)">
        <path id="Path_7" data-name="Path 7" d="M207.5,0C322.1,0,415,92.9,415,207.5S322.1,415,207.5,415,0,322.1,0,207.5,92.9,0,207.5,0Z" transform="translate(608 364)" fill="#ff9543"/>
        <circle id="Ellipse_1" data-name="Ellipse 1" cx="190" cy="190" r="190" transform="translate(626 381)" fill="#3d3d3d"/>
      </g>
      <path id="Path_6" data-name="Path 6" d="M756.775,530.74c-4.046-1.4-6.737-4.632-7.266-10.439,2.274-14.082,3.7-17.112,16.864-47.109,12.3-23.331,16.655-27.606,22.6-28.785,3.665-.733,9.537,1.364,16.592,3.636,17.42,5.611,74.347,66.291,92.573,100.907S767.2,534.353,756.775,530.74Z" transform="translate(28.46 -44.853)" fill="url(#linear-gradient)"/>
      <path id="Path_10" data-name="Path 10" d="M881.1,529.588c4.046-1.4,16.975-7.868,17.5-13.675-2.274-14.082-2.631-12.723-15.79-42.72-12.3-23.331-14.653-21.32-20.754-28.052-3.665-.733-11.459-11.74-18.514-9.467-17.42,5.611-69.5,67.477-87.725,102.093S870.673,533.2,881.1,529.588Z" transform="translate(216.991 -37.84)" fill="url(#linear-gradient-2)"/>
      <path id="Path_8" data-name="Path 8" d="M751.246,531.971c-4.046-1.4-5.659-8.389-5.659-8.389s-3.685.515,9.474-29.483c12.3-23.331,36.577-53.373,36.577-53.373s3.17-5.21,10.225-2.938c17.42,5.611,84.915,87.484,103.141,122.1,9.878,18.762-72.713-8.027-72.713-8.027S756.021,533.626,751.246,531.971Z" transform="translate(511.564 -478.493) rotate(34)" fill="url(#linear-gradient)"/>
      <path id="Path_9" data-name="Path 9" d="M738.808,564.033c-4.046-1.4-4.325-9.018-2-21.822s11.312-29.394,11.312-29.394,8.5-15.683,8.893-16.583c12.3-23.331,21.757-33.532,34.244-31.615s45.387,45.19,52.72,50.251c10.746,6.944,16.231,18.216,24.1,23.679,9.949,6.91,18.684,12.151,33.594,25.281,5.008,9.512-4.907,7.788-28.323,5.049-15.687-5.045-57.9-6.086-57.9-6.086S743.583,565.688,738.808,564.033Z" transform="translate(1430.891 -462.349) rotate(84)" fill="url(#linear-gradient)"/>
    </g>
    <g id="Extract" transform="translate(16.588 -23)">
      <g id="Path_1" data-name="Path 1" transform="translate(747.078 485.275)" fill="#ffaa68" stroke-linecap="round">
        <path d="M 180.8340606689453 381.8128967285156 C 75.39279174804688 381.8128967285156 -10.3899393081665 293.0854187011719 -10.3899393081665 184.0247039794922 C -10.3899393081665 148.3966979980469 -105.7521209716797 123.3497924804688 -146.4737548828125 112.6543350219727 C -180.0392150878906 103.8383331298828 -189.0604858398438 101.468879699707 -187.4588470458984 89.06633758544922 C -185.6595764160156 75.13269805908203 -185.5519409179688 74.29869842529297 -35.05230331420898 74.29869842529297 C 0.2849697470664978 74.29869842529297 43.41042327880859 74.40087890625 95.59260559082031 74.52469635009766 L 180.8573303222656 74.71633911132812 L 277.9513244628906 74.88524627685547 C 547.2868041992188 75.30833435058594 547.2868041992188 75.30833435058594 549.1607666015625 90.30706024169922 C 550.7044067382812 102.6636123657227 541.7855224609375 104.9423370361328 508.6011657714844 113.4210662841797 C 467.7422485351562 123.8607025146484 372.0580749511719 148.3081512451172 372.0580749511719 184.0247039794922 C 372.0580749511719 293.0854187011719 286.2753295898438 381.8128967285156 180.8340606689453 381.8128967285156 Z" stroke="none"/>
        <path d="M -35.05258178710938 85.79861450195312 C -372.1916809082031 85.79861450195312 1.11004638671875 95.1187744140625 1.11004638671875 184.0246887207031 C 1.11004638671875 286.90869140625 81.57525634765625 370.3126831054688 180.8340606689453 370.3126831054688 C 280.0928649902344 370.3126831054688 360.5580749511719 286.90869140625 360.5580749511719 184.0246887207031 C 360.5580749511719 81.1405029296875 860.5198974609375 87.59671020507812 180.8340606689453 86.21630859375 C 88.48904418945312 86.02877807617188 17.95431518554688 85.79861450195312 -35.05258178710938 85.79861450195312 M -35.05255126953125 62.7987060546875 C 0.313873291015625 62.7987060546875 43.47967529296875 62.90109252929688 95.716064453125 63.02490234375 L 180.880859375 63.21630859375 L 277.9692687988281 63.38531494140625 C 376.3318481445312 63.53970336914062 441.3138427734375 63.64190673828125 481.7748718261719 64.32550048828125 C 538.541259765625 65.28469848632812 557.6642456054688 65.60791015625 560.5720825195312 88.88128662109375 C 563.3724365234375 111.2962951660156 544.9292602539062 116.0085144042969 511.4478759765625 124.5631103515625 C 426.5864562988281 146.2455139160156 383.5580749511719 166.2513122558594 383.5580749511719 184.0246887207031 C 383.5580749511719 299.426513671875 292.616455078125 393.3126831054688 180.8340606689453 393.3126831054688 C 69.05166625976562 393.3126831054688 -21.88995361328125 299.426513671875 -21.88995361328125 184.0246887207031 C -21.88995361328125 166.2691040039062 -64.7889404296875 145.9986877441406 -149.3953247070312 123.7768859863281 C -183.1609191894531 114.9085083007812 -201.7607116699219 110.0231018066406 -198.8643493652344 87.593505859375 C -195.9919128417969 65.35031127929688 -174.6681213378906 64.67330932617188 -145.1547241210938 63.73651123046875 C -124.1739501953125 63.0703125 -92.275146484375 62.7987060546875 -35.05255126953125 62.7987060546875 Z" stroke="none" fill="#946d4f"/>
      </g>
      <path id="Path_2" data-name="Path 2" d="M801.45,648.92c-36.8,67.657,27.3,167.362,121.07,127,21-9.04,28.37-23.8,26.717-40.732C943.614,677.577,830,596.418,801.45,648.92Z" transform="translate(-0.094 13.049)" fill="#ffd2ae"/>
      <path id="Path_3" data-name="Path 3" d="M796.366,660.642c-14,29.48,8.934,51.648,44.6,34.063,7.989-3.939,10.791-10.369,10.162-17.748C848.991,651.853,807.227,637.766,796.366,660.642Z" transform="translate(175.881 98.781)" fill="#ffd2ae"/>
      <path id="Path_4" data-name="Path 4" d="M638.329,582.646c-42.344,4.848,87.728,17.425,106.355,45.666s13.618,30.245,20.829,45.267,2-53.679-10.614-69.3,30.443-13.7,52.675-19.068S680.673,577.8,638.329,582.646Z" transform="translate(1 -1)" fill="rgba(93,93,93,0.66)"/>
      <path id="Path_5" data-name="Path 5" d="M8.426,93.067C-33.918,88.218,96.154,75.641,114.781,47.4S128.4,17.155,135.61,2.133s2,53.679-10.614,69.3,30.443,13.7,52.675,19.068S50.77,97.915,8.426,93.067Z" transform="translate(1221.449 674.698) rotate(179)" fill="rgba(93,93,93,0.66)"/>
    </g>
  </g>
</svg>
